<?xml version="1.0" encoding="UTF-8"?>
<svg id="schematic" xmlns="http://www.w3.org/2000/svg" width="69mm" height="62mm" viewBox="0 0 195.59 175.75">
  <defs>
    <style>
      .cls-1 {
        fill: #1d1d1b;
      }

      .cls-2 {
        stroke: #d04544;
      }

      .cls-2, .cls-3 {
        fill: none;
        stroke-miterlimit: 10;
      }

      .cls-3 {
        stroke: #1d1d1b;
      }
    </style>
  </defs>
  <rect class="cls-2" x="94.23" y="77.51" width="149.62" height="20.98" transform="translate(81.05 257.03) rotate(-90)"/>
  <rect class="cls-2" x="-47.38" y="77.1" width="148.82" height="20.98" transform="translate(-60.57 114.62) rotate(-90)"/>
  <polyline class="cls-3" points="62.03 37.59 44.03 37.59 27.03 18.14"/>
  <polyline class="cls-3" points="62.03 44.79 44.03 44.79 27.03 28.06"/>
  <polyline class="cls-3" points="62.03 51.99 44.03 51.99 27.03 37.99"/>
  <polyline class="cls-3" points="62.03 59.19 44.03 59.19 27.03 47.91"/>
  <polyline class="cls-3" points="62.03 66.39 44.03 66.39 27.03 57.83"/>
  <polyline class="cls-3" points="62.03 73.59 44.03 73.59 27.03 67.75"/>
  <polyline class="cls-3" points="62.03 80.79 44.03 80.79 27.03 77.67"/>
  <polyline class="cls-3" points="62.03 87.99 44.03 87.99 27.03 87.59"/>
  <polyline class="cls-3" points="62.03 95.19 44.03 95.19 27.03 97.51"/>
  <polyline class="cls-3" points="62.03 102.39 44.03 102.39 27.03 107.43"/>
  <polyline class="cls-3" points="62.03 109.59 44.03 109.59 27.03 117.3"/>
  <polyline class="cls-3" points="62.03 116.79 44.03 116.79 27.03 127.28"/>
  <polyline class="cls-3" points="62.03 123.99 44.03 123.99 27.03 137.2"/>
  <polyline class="cls-3" points="62.03 131.19 44.03 131.19 27.03 147.12"/>
  <polyline class="cls-3" points="62.03 138.39 44.03 138.39 27.03 157.04"/>
  <polyline class="cls-3" points="134.03 138.39 152.03 138.39 169.04 157.84"/>
  <polyline class="cls-3" points="134.03 131.19 152.03 131.19 169.04 147.92"/>
  <polyline class="cls-3" points="134.03 123.99 152.03 123.99 169.04 138"/>
  <polyline class="cls-3" points="134.03 116.79 152.03 116.79 169.04 128.08"/>
  <polyline class="cls-3" points="134.03 109.59 152.03 109.59 169.04 118.1"/>
  <polyline class="cls-3" points="134.03 102.39 152.03 102.39 169.04 108.24"/>
  <polyline class="cls-3" points="134.03 95.19 152.03 95.19 169.04 98.32"/>
  <polyline class="cls-3" points="134.03 87.99 152.03 87.99 169.04 88.4"/>
  <polyline class="cls-3" points="134.03 80.79 152.03 80.79 169.04 78.47"/>
  <polyline class="cls-3" points="134.03 73.59 152.03 73.59 169.04 68.55"/>
  <polyline class="cls-3" points="134.03 66.39 152.03 66.39 169.04 58.63"/>
  <polyline class="cls-3" points="134.03 59.19 152.03 59.19 169.04 48.71"/>
  <polyline class="cls-3" points="134.03 51.99 152.03 51.99 169.04 38.79"/>
  <polyline class="cls-3" points="134.03 44.79 152.03 44.79 169.04 28.87"/>
  <polyline class="cls-3" points="134.03 37.59 152.03 37.59 169.04 18.95"/>
  <g id="text">
    <g>
      <path class="cls-1" d="M6.45,20.38v-5.01h2.97v.59h-2.43v1.53h2.27v.59h-2.27v1.71h2.52v.59h-3.07Z"/>
      <path class="cls-1" d="M10.25,20.38v-5.01h.56l2.16,3.94v-3.94h.52v5.01h-.56l-2.16-3.94v3.94h-.52Z"/>
      <path class="cls-1" d="M7.93,30.38l-1.6-5.01h.59l1.07,3.64c.08.28.15.56.22.82.06-.28.14-.55.22-.82l1.11-3.64h.55l-1.61,5.01h-.56Z"/>
      <path class="cls-1" d="M10.58,30.38v-5.01h1.55c.36,0,.63.03.81.1.24.09.43.25.57.48s.21.52.21.86c0,.45-.12.82-.35,1.1s-.63.43-1.19.43h-1.05v2.04h-.54ZM11.12,27.76h1.06c.33,0,.58-.08.73-.23.15-.15.23-.38.23-.69,0-.2-.04-.37-.11-.51-.08-.14-.17-.24-.28-.29-.11-.05-.3-.08-.59-.08h-1.05v1.79Z"/>
      <path class="cls-1" d="M7.62,40.38l-1.6-5.01h.59l1.07,3.64c.08.28.15.56.22.82.06-.28.14-.55.22-.82l1.11-3.64h.55l-1.61,5.01h-.56Z"/>
      <path class="cls-1" d="M10.25,40.38v-5.01h.56l2.16,3.94v-3.94h.52v5.01h-.56l-2.16-3.94v3.94h-.52Z"/>
      <path class="cls-1" d="M3.87,50.38v-5.01h1.42c.35,0,.62.03.8.09.24.08.45.23.62.44s.31.48.41.8c.1.32.15.71.15,1.15,0,.57-.08,1.05-.25,1.44-.17.4-.38.68-.64.84-.26.17-.6.25-1.02.25h-1.48ZM4.41,49.79h.88c.35,0,.62-.06.8-.17.18-.12.32-.3.42-.56.13-.34.19-.75.19-1.22,0-.51-.07-.91-.21-1.2-.14-.29-.31-.48-.53-.58-.15-.07-.38-.1-.69-.1h-.86v3.83Z"/>
      <path class="cls-1" d="M7.81,49.06l.5-.08c.1.66.37.99.8.99.23,0,.43-.1.6-.29.17-.2.25-.45.25-.76,0-.29-.08-.53-.23-.71s-.35-.27-.57-.27c-.1,0-.21.02-.36.07l.06-.54h.08c.25,0,.45-.07.61-.22.16-.15.23-.36.23-.61,0-.23-.06-.42-.2-.56s-.29-.21-.48-.21-.36.07-.49.22c-.13.15-.22.38-.26.68l-.5-.11c.06-.43.21-.75.43-.97s.49-.33.81-.33c.33,0,.62.12.85.37.23.25.35.56.35.93,0,.23-.05.43-.15.6-.1.18-.24.31-.41.41.16.05.3.12.4.23.11.1.19.25.26.42s.1.37.1.59c0,.46-.14.84-.41,1.13s-.6.44-.97.44c-.35,0-.65-.13-.89-.38s-.38-.6-.42-1.03Z"/>
      <path class="cls-1" d="M12.62,50.38v-1.2h-1.78v-.56l1.87-3.25h.41v3.25h.56v.56h-.56v1.2h-.51ZM12.62,48.62v-2.26l-1.28,2.26h1.28Z"/>
      <path class="cls-1" d="M3.87,60.38v-5.01h1.42c.35,0,.62.03.8.09.24.08.45.23.62.44s.31.48.41.8c.1.32.15.71.15,1.15,0,.57-.08,1.05-.25,1.44-.17.4-.38.68-.64.84-.26.17-.6.25-1.02.25h-1.48ZM4.41,59.79h.88c.35,0,.62-.06.8-.17.18-.12.32-.3.42-.56.13-.34.19-.75.19-1.22,0-.51-.07-.91-.21-1.2-.14-.29-.31-.48-.53-.58-.15-.07-.38-.1-.69-.1h-.86v3.83Z"/>
      <path class="cls-1" d="M7.81,59.06l.5-.08c.1.66.37.99.8.99.23,0,.43-.1.6-.29.17-.2.25-.45.25-.76,0-.29-.08-.53-.23-.71s-.35-.27-.57-.27c-.1,0-.21.02-.36.07l.06-.54h.08c.25,0,.45-.07.61-.22.16-.15.23-.36.23-.61,0-.23-.06-.42-.2-.56s-.29-.21-.48-.21-.36.07-.49.22c-.13.15-.22.38-.26.68l-.5-.11c.06-.43.21-.75.43-.97s.49-.33.81-.33c.33,0,.62.12.85.37.23.25.35.56.35.93,0,.23-.05.43-.15.6-.1.18-.24.31-.41.41.16.05.3.12.4.23.11.1.19.25.26.42s.1.37.1.59c0,.46-.14.84-.41,1.13s-.6.44-.97.44c-.35,0-.65-.13-.89-.38s-.38-.6-.42-1.03Z"/>
      <path class="cls-1" d="M11,59.07l.53-.05c.04.32.13.56.28.71.15.16.31.23.5.23.24,0,.45-.11.62-.33s.26-.52.26-.9c0-.36-.08-.64-.25-.83-.17-.2-.38-.3-.63-.3-.15,0-.3.04-.43.13-.13.09-.24.21-.32.36l-.48-.08.4-2.57h2.04v.59h-1.64l-.22,1.35c.24-.21.5-.32.78-.32.34,0,.64.15.9.44.25.29.38.69.38,1.19s-.13.91-.38,1.26c-.25.35-.6.53-1.02.53-.36,0-.66-.12-.9-.37-.24-.25-.38-.59-.42-1.03Z"/>
      <path class="cls-1" d="M3.87,70.38v-5.01h1.42c.35,0,.62.03.8.09.24.08.45.23.62.44s.31.48.41.8c.1.32.15.71.15,1.15,0,.57-.08,1.05-.25,1.44-.17.4-.38.68-.64.84-.26.17-.6.25-1.02.25h-1.48ZM4.41,69.79h.88c.35,0,.62-.06.8-.17.18-.12.32-.3.42-.56.13-.34.19-.75.19-1.22,0-.51-.07-.91-.21-1.2-.14-.29-.31-.48-.53-.58-.15-.07-.38-.1-.69-.1h-.86v3.83Z"/>
      <path class="cls-1" d="M7.81,69.06l.5-.08c.1.66.37.99.8.99.23,0,.43-.1.6-.29.17-.2.25-.45.25-.76,0-.29-.08-.53-.23-.71s-.35-.27-.57-.27c-.1,0-.21.02-.36.07l.06-.54h.08c.25,0,.45-.07.61-.22.16-.15.23-.36.23-.61,0-.23-.06-.42-.2-.56s-.29-.21-.48-.21-.36.07-.49.22c-.13.15-.22.38-.26.68l-.5-.11c.06-.43.21-.75.43-.97s.49-.33.81-.33c.33,0,.62.12.85.37.23.25.35.56.35.93,0,.23-.05.43-.15.6-.1.18-.24.31-.41.41.16.05.3.12.4.23.11.1.19.25.26.42s.1.37.1.59c0,.46-.14.84-.41,1.13s-.6.44-.97.44c-.35,0-.65-.13-.89-.38s-.38-.6-.42-1.03Z"/>
      <path class="cls-1" d="M13.66,69.79v.59h-2.72c0-.24.07-.51.22-.8.15-.3.43-.65.83-1.05.47-.47.78-.83.93-1.09.15-.26.22-.5.22-.72,0-.26-.07-.46-.22-.62-.15-.16-.33-.24-.55-.24-.23,0-.43.09-.58.26s-.23.42-.23.75l-.52-.06c.04-.48.17-.84.41-1.08.24-.24.55-.36.93-.36.42,0,.74.14.95.42.21.28.32.6.32.96,0,.32-.08.62-.25.92s-.49.68-.96,1.17c-.3.31-.5.52-.58.63-.09.11-.16.22-.21.34h2.02Z"/>
      <path class="cls-1" d="M3.87,80.38v-5.01h1.42c.35,0,.62.03.8.09.24.08.45.23.62.44s.31.48.41.8c.1.32.15.71.15,1.15,0,.57-.08,1.05-.25,1.44-.17.4-.38.68-.64.84-.26.17-.6.25-1.02.25h-1.48ZM4.41,79.79h.88c.35,0,.62-.06.8-.17.18-.12.32-.3.42-.56.13-.34.19-.75.19-1.22,0-.51-.07-.91-.21-1.2-.14-.29-.31-.48-.53-.58-.15-.07-.38-.1-.69-.1h-.86v3.83Z"/>
      <path class="cls-1" d="M7.81,79.06l.5-.08c.1.66.37.99.8.99.23,0,.43-.1.6-.29.17-.2.25-.45.25-.76,0-.29-.08-.53-.23-.71s-.35-.27-.57-.27c-.1,0-.21.02-.36.07l.06-.54h.08c.25,0,.45-.07.61-.22.16-.15.23-.36.23-.61,0-.23-.06-.42-.2-.56s-.29-.21-.48-.21-.36.07-.49.22c-.13.15-.22.38-.26.68l-.5-.11c.06-.43.21-.75.43-.97s.49-.33.81-.33c.33,0,.62.12.85.37.23.25.35.56.35.93,0,.23-.05.43-.15.6-.1.18-.24.31-.41.41.16.05.3.12.4.23.11.1.19.25.26.42s.1.37.1.59c0,.46-.14.84-.41,1.13s-.6.44-.97.44c-.35,0-.65-.13-.89-.38s-.38-.6-.42-1.03Z"/>
      <path class="cls-1" d="M11,79.06l.5-.08c.1.66.37.99.8.99.23,0,.43-.1.6-.29.17-.2.25-.45.25-.76,0-.29-.08-.53-.23-.71s-.35-.27-.57-.27c-.1,0-.21.02-.36.07l.06-.54h.08c.25,0,.45-.07.61-.22.16-.15.23-.36.23-.61,0-.23-.06-.42-.2-.56s-.29-.21-.48-.21-.36.07-.49.22c-.13.15-.22.38-.26.68l-.5-.11c.06-.43.21-.75.43-.97s.49-.33.81-.33c.33,0,.62.12.85.37.23.25.35.56.35.93,0,.23-.05.43-.15.6-.1.18-.24.31-.41.41.16.05.3.12.4.23.11.1.19.25.26.42s.1.37.1.59c0,.46-.14.84-.41,1.13s-.6.44-.97.44c-.35,0-.65-.13-.89-.38s-.38-.6-.42-1.03Z"/>
      <path class="cls-1" d="M3.87,90.38v-5.01h1.42c.35,0,.62.03.8.09.24.08.45.23.62.44s.31.48.41.8c.1.32.15.71.15,1.15,0,.57-.08,1.05-.25,1.44-.17.4-.38.68-.64.84-.26.17-.6.25-1.02.25h-1.48ZM4.41,89.79h.88c.35,0,.62-.06.8-.17.18-.12.32-.3.42-.56.13-.34.19-.75.19-1.22,0-.51-.07-.91-.21-1.2-.14-.29-.31-.48-.53-.58-.15-.07-.38-.1-.69-.1h-.86v3.83Z"/>
      <path class="cls-1" d="M10.47,89.79v.59h-2.72c0-.24.07-.51.22-.8.15-.3.43-.65.83-1.05.47-.47.78-.83.93-1.09.15-.26.22-.5.22-.72,0-.26-.07-.46-.22-.62-.15-.16-.33-.24-.55-.24-.23,0-.43.09-.58.26s-.23.42-.23.75l-.52-.06c.04-.48.17-.84.41-1.08.24-.24.55-.36.93-.36.42,0,.74.14.95.42.21.28.32.6.32.96,0,.32-.08.62-.25.92s-.49.68-.96,1.17c-.3.31-.5.52-.58.63-.09.11-.16.22-.21.34h2.02Z"/>
      <path class="cls-1" d="M11,89.07l.53-.05c.04.32.13.56.28.71.15.16.31.23.5.23.24,0,.45-.11.62-.33s.26-.52.26-.9c0-.36-.08-.64-.25-.83-.17-.2-.38-.3-.63-.3-.15,0-.3.04-.43.13-.13.09-.24.21-.32.36l-.48-.08.4-2.57h2.04v.59h-1.64l-.22,1.35c.24-.21.5-.32.78-.32.34,0,.64.15.9.44.25.29.38.69.38,1.19s-.13.91-.38,1.26c-.25.35-.6.53-1.02.53-.36,0-.66-.12-.9-.37-.24-.25-.38-.59-.42-1.03Z"/>
      <path class="cls-1" d="M3.87,100.38v-5.01h1.42c.35,0,.62.03.8.09.24.08.45.23.62.44s.31.48.41.8c.1.32.15.71.15,1.15,0,.57-.08,1.05-.25,1.44-.17.4-.38.68-.64.84-.26.17-.6.25-1.02.25h-1.48ZM4.41,99.79h.88c.35,0,.62-.06.8-.17.18-.12.32-.3.42-.56.13-.34.19-.75.19-1.22,0-.51-.07-.91-.21-1.2-.14-.29-.31-.48-.53-.58-.15-.07-.38-.1-.69-.1h-.86v3.83Z"/>
      <path class="cls-1" d="M10.47,99.79v.59h-2.72c0-.24.07-.51.22-.8.15-.3.43-.65.83-1.05.47-.47.78-.83.93-1.09.15-.26.22-.5.22-.72,0-.26-.07-.46-.22-.62-.15-.16-.33-.24-.55-.24-.23,0-.43.09-.58.26s-.23.42-.23.75l-.52-.06c.04-.48.17-.84.41-1.08.24-.24.55-.36.93-.36.42,0,.74.14.95.42.21.28.32.6.32.96,0,.32-.08.62-.25.92s-.49.68-.96,1.17c-.3.31-.5.52-.58.63-.09.11-.16.22-.21.34h2.02Z"/>
      <path class="cls-1" d="M13.62,96.6l-.5.05c-.05-.26-.12-.44-.21-.55-.13-.16-.3-.24-.48-.24-.29,0-.53.18-.71.55-.15.31-.23.78-.23,1.39.12-.22.26-.38.44-.5.18-.11.36-.17.56-.17.33,0,.61.15.85.44.24.29.36.69.36,1.18,0,.33-.06.64-.18.91-.12.27-.28.47-.47.6s-.4.19-.63.19c-.41,0-.76-.19-1.03-.56s-.4-1-.4-1.87c0-.97.14-1.66.41-2.07.28-.41.63-.62,1.06-.62.31,0,.57.11.78.32.21.21.34.52.38.93ZM11.56,98.76c0,.36.09.65.26.87.17.22.37.33.59.33.2,0,.38-.1.53-.31.16-.21.23-.49.23-.85s-.08-.63-.23-.83-.34-.29-.57-.29-.41.1-.57.29c-.16.2-.24.46-.24.79Z"/>
      <path class="cls-1" d="M3.87,110.38v-5.01h1.42c.35,0,.62.03.8.09.24.08.45.23.62.44s.31.48.41.8c.1.32.15.71.15,1.15,0,.57-.08,1.05-.25,1.44-.17.4-.38.68-.64.84-.26.17-.6.25-1.02.25h-1.48ZM4.41,109.79h.88c.35,0,.62-.06.8-.17.18-.12.32-.3.42-.56.13-.34.19-.75.19-1.22,0-.51-.07-.91-.21-1.2-.14-.29-.31-.48-.53-.58-.15-.07-.38-.1-.69-.1h-.86v3.83Z"/>
      <path class="cls-1" d="M10.47,109.79v.59h-2.72c0-.24.07-.51.22-.8.15-.3.43-.65.83-1.05.47-.47.78-.83.93-1.09.15-.26.22-.5.22-.72,0-.26-.07-.46-.22-.62-.15-.16-.33-.24-.55-.24-.23,0-.43.09-.58.26s-.23.42-.23.75l-.52-.06c.04-.48.17-.84.41-1.08.24-.24.55-.36.93-.36.42,0,.74.14.95.42.21.28.32.6.32.96,0,.32-.08.62-.25.92s-.49.68-.96,1.17c-.3.31-.5.52-.58.63-.09.11-.16.22-.21.34h2.02Z"/>
      <path class="cls-1" d="M11.04,106.03v-.59h2.66v.48c-.4.52-.75,1.19-1.05,2.01-.3.83-.47,1.65-.52,2.46h-.52c0-.42.07-.91.2-1.47.13-.56.3-1.09.52-1.6.22-.51.46-.94.71-1.29h-2.01Z"/>
      <path class="cls-1" d="M3.87,120.38v-5.01h1.42c.35,0,.62.03.8.09.24.08.45.23.62.44s.31.48.41.8c.1.32.15.71.15,1.15,0,.57-.08,1.05-.25,1.44-.17.4-.38.68-.64.84-.26.17-.6.25-1.02.25h-1.48ZM4.41,119.79h.88c.35,0,.62-.06.8-.17.18-.12.32-.3.42-.56.13-.34.19-.75.19-1.22,0-.51-.07-.91-.21-1.2-.14-.29-.31-.48-.53-.58-.15-.07-.38-.1-.69-.1h-.86v3.83Z"/>
      <path class="cls-1" d="M9.71,120.38h-.51v-3.92c-.12.14-.27.28-.47.42-.2.14-.38.25-.54.32v-.59c.28-.16.52-.35.74-.58.21-.23.36-.45.45-.67h.33v5.03Z"/>
      <path class="cls-1" d="M12.62,120.38v-1.2h-1.78v-.56l1.87-3.25h.41v3.25h.56v.56h-.56v1.2h-.51ZM12.62,118.62v-2.26l-1.28,2.26h1.28Z"/>
      <path class="cls-1" d="M3.87,130.38v-5.01h1.42c.35,0,.62.03.8.09.24.08.45.23.62.44s.31.48.41.8c.1.32.15.71.15,1.15,0,.57-.08,1.05-.25,1.44-.17.4-.38.68-.64.84-.26.17-.6.25-1.02.25h-1.48ZM4.41,129.79h.88c.35,0,.62-.06.8-.17.18-.12.32-.3.42-.56.13-.34.19-.75.19-1.22,0-.51-.07-.91-.21-1.2-.14-.29-.31-.48-.53-.58-.15-.07-.38-.1-.69-.1h-.86v3.83Z"/>
      <path class="cls-1" d="M9.71,130.38h-.51v-3.92c-.12.14-.27.28-.47.42-.2.14-.38.25-.54.32v-.59c.28-.16.52-.35.74-.58.21-.23.36-.45.45-.67h.33v5.03Z"/>
      <path class="cls-1" d="M13.66,129.79v.59h-2.72c0-.24.07-.51.22-.8.15-.3.43-.65.83-1.05.47-.47.78-.83.93-1.09.15-.26.22-.5.22-.72,0-.26-.07-.46-.22-.62-.15-.16-.33-.24-.55-.24-.23,0-.43.09-.58.26s-.23.42-.23.75l-.52-.06c.04-.48.17-.84.41-1.08.24-.24.55-.36.93-.36.42,0,.74.14.95.42.21.28.32.6.32.96,0,.32-.08.62-.25.92s-.49.68-.96,1.17c-.3.31-.5.52-.58.63-.09.11-.16.22-.21.34h2.02Z"/>
      <path class="cls-1" d="M3.87,140.38v-5.01h1.42c.35,0,.62.03.8.09.24.08.45.23.62.44s.31.48.41.8c.1.32.15.71.15,1.15,0,.57-.08,1.05-.25,1.44-.17.4-.38.68-.64.84-.26.17-.6.25-1.02.25h-1.48ZM4.41,139.79h.88c.35,0,.62-.06.8-.17.18-.12.32-.3.42-.56.13-.34.19-.75.19-1.22,0-.51-.07-.91-.21-1.2-.14-.29-.31-.48-.53-.58-.15-.07-.38-.1-.69-.1h-.86v3.83Z"/>
      <path class="cls-1" d="M9.71,140.38h-.51v-3.92c-.12.14-.27.28-.47.42-.2.14-.38.25-.54.32v-.59c.28-.16.52-.35.74-.58.21-.23.36-.45.45-.67h.33v5.03Z"/>
      <path class="cls-1" d="M11,139.06l.5-.08c.1.66.37.99.8.99.23,0,.43-.1.6-.29.17-.2.25-.45.25-.76,0-.29-.08-.53-.23-.71s-.35-.27-.57-.27c-.1,0-.21.02-.36.07l.06-.54h.08c.25,0,.45-.07.61-.22.16-.15.23-.36.23-.61,0-.23-.06-.42-.2-.56s-.29-.21-.48-.21-.36.07-.49.22c-.13.15-.22.38-.26.68l-.5-.11c.06-.43.21-.75.43-.97s.49-.33.81-.33c.33,0,.62.12.85.37.23.25.35.56.35.93,0,.23-.05.43-.15.6-.1.18-.24.31-.41.41.16.05.3.12.4.23.11.1.19.25.26.42s.1.37.1.59c0,.46-.14.84-.41,1.13s-.6.44-.97.44c-.35,0-.65-.13-.89-.38s-.38-.6-.42-1.03Z"/>
      <path class="cls-1" d="M3.59,148.42v-.59h1.74s0,1.86,0,1.86c-.27.26-.54.46-.83.59-.28.13-.58.2-.88.2-.4,0-.76-.1-1.07-.3s-.56-.49-.75-.88c-.18-.39-.27-.85-.27-1.39s.09-1.02.28-1.43c.18-.41.43-.71.72-.9s.65-.29,1.06-.29c.3,0,.56.06.79.17s.41.27.56.48.26.49.33.84l-.49.16c-.07-.28-.15-.49-.25-.63-.1-.14-.23-.25-.4-.33s-.35-.12-.55-.12c-.3,0-.56.07-.77.22-.22.15-.39.37-.52.68-.13.31-.2.68-.2,1.12,0,.67.14,1.17.42,1.51.28.33.65.5,1.09.5.21,0,.43-.05.66-.15.22-.1.4-.22.53-.37v-.93h-1.21Z"/>
      <path class="cls-1" d="M6.11,150.38v-5.01h.56l2.16,3.94v-3.94h.52v5.01h-.56l-2.16-3.94v3.94h-.52Z"/>
      <path class="cls-1" d="M10.25,150.38v-5.01h1.42c.35,0,.62.03.8.09.24.08.45.23.62.44s.31.48.41.8c.1.32.15.71.15,1.15,0,.57-.08,1.05-.25,1.44-.17.4-.38.68-.64.84-.26.17-.6.25-1.02.25h-1.48ZM10.8,149.79h.88c.35,0,.62-.06.8-.17.18-.12.32-.3.42-.56.13-.34.19-.75.19-1.22,0-.51-.07-.91-.21-1.2-.14-.29-.31-.48-.53-.58-.15-.07-.38-.1-.69-.1h-.86v3.83Z"/>
      <path class="cls-1" d="M6.02,160.38l-1.6-5.01h.59l1.07,3.64c.08.28.15.56.22.82.06-.28.14-.55.22-.82l1.11-3.64h.55l-1.61,5.01h-.56Z"/>
      <path class="cls-1" d="M8.77,160.38v-5.01h.54v5.01h-.54Z"/>
      <path class="cls-1" d="M10.25,160.38v-5.01h.56l2.16,3.94v-3.94h.52v5.01h-.56l-2.16-3.94v3.94h-.52Z"/>
    </g>
    <g>
      <path class="cls-1" d="M182.05,20.75v-5.01h1.42c.35,0,.62.03.8.09.24.08.45.23.62.44s.31.48.41.8c.1.32.15.71.15,1.15,0,.57-.08,1.05-.25,1.44-.17.4-.38.68-.64.84-.26.17-.6.25-1.02.25h-1.48ZM182.6,20.16h.88c.35,0,.62-.06.8-.17.18-.12.32-.3.42-.56.13-.34.19-.75.19-1.22,0-.51-.07-.91-.21-1.2-.14-.29-.31-.48-.53-.58-.15-.07-.38-.1-.69-.1h-.86v3.83Z"/>
      <path class="cls-1" d="M188.65,20.16v.59h-2.72c0-.24.07-.51.22-.8.15-.3.43-.65.83-1.05.47-.47.78-.83.93-1.09.15-.26.22-.5.22-.72,0-.26-.07-.46-.22-.62-.15-.16-.33-.24-.55-.24-.23,0-.43.09-.58.26s-.23.42-.23.75l-.52-.06c.04-.48.17-.84.41-1.08.24-.24.55-.36.93-.36.42,0,.74.14.95.42.21.28.32.6.32.96,0,.32-.08.62-.25.92s-.49.68-.96,1.17c-.3.31-.5.52-.58.63-.09.11-.16.22-.21.34h2.02Z"/>
      <path class="cls-1" d="M189.19,19.42l.5-.08c.1.66.37.99.8.99.23,0,.43-.1.6-.29.17-.2.25-.45.25-.76,0-.29-.08-.53-.23-.71s-.35-.27-.57-.27c-.1,0-.21.02-.36.07l.06-.54h.08c.25,0,.45-.07.61-.22.16-.15.23-.36.23-.61,0-.23-.06-.42-.2-.56s-.29-.21-.48-.21-.36.07-.49.22c-.13.15-.22.38-.26.68l-.5-.11c.06-.43.21-.75.43-.97s.49-.33.81-.33c.33,0,.62.12.85.37.23.25.35.56.35.93,0,.23-.05.43-.15.6-.1.18-.24.31-.41.41.16.05.3.12.4.23.11.1.19.25.26.42s.1.37.1.59c0,.46-.14.84-.41,1.13s-.6.44-.97.44c-.35,0-.65-.13-.89-.38s-.38-.6-.42-1.03Z"/>
      <path class="cls-1" d="M182.05,30.75v-5.01h1.42c.35,0,.62.03.8.09.24.08.45.23.62.44s.31.48.41.8c.1.32.15.71.15,1.15,0,.57-.08,1.05-.25,1.44-.17.4-.38.68-.64.84-.26.17-.6.25-1.02.25h-1.48ZM182.6,30.16h.88c.35,0,.62-.06.8-.17.18-.12.32-.3.42-.56.13-.34.19-.75.19-1.22,0-.51-.07-.91-.21-1.2-.14-.29-.31-.48-.53-.58-.15-.07-.38-.1-.69-.1h-.86v3.83Z"/>
      <path class="cls-1" d="M188.65,30.16v.59h-2.72c0-.24.07-.51.22-.8.15-.3.43-.65.83-1.05.47-.47.78-.83.93-1.09.15-.26.22-.5.22-.72,0-.26-.07-.46-.22-.62-.15-.16-.33-.24-.55-.24-.23,0-.43.09-.58.26s-.23.42-.23.75l-.52-.06c.04-.48.17-.84.41-1.08.24-.24.55-.36.93-.36.42,0,.74.14.95.42.21.28.32.6.32.96,0,.32-.08.62-.25.92s-.49.68-.96,1.17c-.3.31-.5.52-.58.63-.09.11-.16.22-.21.34h2.02Z"/>
      <path class="cls-1" d="M191.85,30.16v.59h-2.72c0-.24.07-.51.22-.8.15-.3.43-.65.83-1.05.47-.47.78-.83.93-1.09.15-.26.22-.5.22-.72,0-.26-.07-.46-.22-.62-.15-.16-.33-.24-.55-.24-.23,0-.43.09-.58.26s-.23.42-.23.75l-.52-.06c.04-.48.17-.84.41-1.08.24-.24.55-.36.93-.36.42,0,.74.14.95.42.21.28.32.6.32.96,0,.32-.08.62-.25.92s-.49.68-.96,1.17c-.3.31-.5.52-.58.63-.09.11-.16.22-.21.34h2.02Z"/>
      <path class="cls-1" d="M183.12,40.75v-4.42h-1.35v-.59h3.26v.59h-1.36v4.42h-.54Z"/>
      <path class="cls-1" d="M185.16,40.75l1.59-2.61-1.4-2.4h.65l.75,1.28c.15.26.26.47.33.62.09-.18.2-.37.33-.57l.83-1.33h.59l-1.44,2.36,1.55,2.65h-.67l-1.04-1.79c-.06-.1-.12-.21-.18-.34-.09.18-.16.31-.2.38l-1.03,1.75h-.65Z"/>
      <path class="cls-1" d="M189.39,40.75v-5.01h1.42c.35,0,.62.03.8.09.24.08.45.23.62.44s.31.48.41.8c.1.32.15.71.15,1.15,0,.57-.08,1.05-.25,1.44-.17.4-.38.68-.64.84-.26.17-.6.25-1.02.25h-1.48ZM189.93,40.16h.88c.35,0,.62-.06.8-.17.18-.12.32-.3.42-.56.13-.34.19-.75.19-1.22,0-.51-.07-.91-.21-1.2-.14-.29-.31-.48-.53-.58-.15-.07-.38-.1-.69-.1h-.86v3.83Z"/>
      <path class="cls-1" d="M182.06,50.75v-5.01h1.82c.38,0,.66.05.84.14.18.09.33.25.45.47.12.22.17.47.17.76,0,.38-.1.68-.3.92-.2.23-.48.38-.86.45.15.09.27.18.35.28.16.19.3.4.43.64l.72,1.36h-.68l-.55-1.04c-.21-.41-.37-.68-.48-.82-.11-.14-.21-.24-.31-.29-.1-.05-.24-.07-.42-.07h-.63v2.23h-.54ZM182.61,47.95h1.17c.26,0,.45-.03.58-.09s.24-.16.31-.29.12-.29.12-.46c0-.25-.07-.45-.22-.6-.15-.14-.37-.22-.66-.22h-1.3v1.66Z"/>
      <path class="cls-1" d="M185.79,50.75l1.59-2.61-1.4-2.4h.65l.75,1.28c.15.26.26.47.33.62.09-.18.2-.37.33-.57l.83-1.33h.59l-1.44,2.36,1.55,2.65h-.67l-1.04-1.79c-.06-.1-.12-.21-.18-.34-.09.18-.16.31-.2.38l-1.03,1.75h-.65Z"/>
      <path class="cls-1" d="M190.03,50.75v-5.01h1.42c.35,0,.62.03.8.09.24.08.45.23.62.44s.31.48.41.8c.1.32.15.71.15,1.15,0,.57-.08,1.05-.25,1.44-.17.4-.38.68-.64.84-.26.17-.6.25-1.02.25h-1.48ZM190.57,50.16h.88c.35,0,.62-.06.8-.17.18-.12.32-.3.42-.56.13-.34.19-.75.19-1.22,0-.51-.07-.91-.21-1.2-.14-.29-.31-.48-.53-.58-.15-.07-.38-.1-.69-.1h-.86v3.83Z"/>
      <path class="cls-1" d="M182.05,60.75v-5.01h1.42c.35,0,.62.03.8.09.24.08.45.23.62.44s.31.48.41.8c.1.32.15.71.15,1.15,0,.57-.08,1.05-.25,1.44-.17.4-.38.68-.64.84-.26.17-.6.25-1.02.25h-1.48ZM182.6,60.16h.88c.35,0,.62-.06.8-.17.18-.12.32-.3.42-.56.13-.34.19-.75.19-1.22,0-.51-.07-.91-.21-1.2-.14-.29-.31-.48-.53-.58-.15-.07-.38-.1-.69-.1h-.86v3.83Z"/>
      <path class="cls-1" d="M188.65,60.16v.59h-2.72c0-.24.07-.51.22-.8.15-.3.43-.65.83-1.05.47-.47.78-.83.93-1.09.15-.26.22-.5.22-.72,0-.26-.07-.46-.22-.62-.15-.16-.33-.24-.55-.24-.23,0-.43.09-.58.26s-.23.42-.23.75l-.52-.06c.04-.48.17-.84.41-1.08.24-.24.55-.36.93-.36.42,0,.74.14.95.42.21.28.32.6.32.96,0,.32-.08.62-.25.92s-.49.68-.96,1.17c-.3.31-.5.52-.58.63-.09.11-.16.22-.21.34h2.02Z"/>
      <path class="cls-1" d="M191.09,60.75h-.51v-3.92c-.12.14-.27.28-.47.42-.2.14-.38.25-.54.32v-.59c.28-.16.52-.35.74-.58.21-.23.36-.45.45-.67h.33v5.03Z"/>
      <path class="cls-1" d="M182.05,70.75v-5.01h1.42c.35,0,.62.03.8.09.24.08.45.23.62.44s.31.48.41.8c.1.32.15.71.15,1.15,0,.57-.08,1.05-.25,1.44-.17.4-.38.68-.64.84-.26.17-.6.25-1.02.25h-1.48ZM182.6,70.16h.88c.35,0,.62-.06.8-.17.18-.12.32-.3.42-.56.13-.34.19-.75.19-1.22,0-.51-.07-.91-.21-1.2-.14-.29-.31-.48-.53-.58-.15-.07-.38-.1-.69-.1h-.86v3.83Z"/>
      <path class="cls-1" d="M187.9,70.75h-.51v-3.92c-.12.14-.27.28-.47.42-.2.14-.38.25-.54.32v-.59c.28-.16.52-.35.74-.58.21-.23.36-.45.45-.67h.33v5.03Z"/>
      <path class="cls-1" d="M189.26,69.59l.49-.05c.08.53.31.79.68.79.17,0,.32-.06.46-.17.14-.12.25-.32.35-.61s.14-.64.14-1.03v-.12c-.1.2-.25.36-.42.48s-.36.18-.54.18c-.33,0-.62-.15-.87-.44-.24-.29-.36-.69-.36-1.2s.13-.94.38-1.24c.25-.3.56-.45.92-.45.26,0,.49.08.71.25s.39.42.51.75.18.8.18,1.42c0,.69-.06,1.22-.19,1.6s-.31.66-.53.83c-.22.18-.47.26-.75.26-.31,0-.57-.11-.78-.32-.21-.21-.33-.52-.38-.92ZM191.33,67.38c0-.36-.08-.64-.24-.85s-.34-.31-.55-.31-.41.11-.58.33c-.17.22-.26.51-.26.88,0,.33.08.59.24.79.16.19.36.29.58.29s.41-.1.57-.29.23-.47.23-.84Z"/>
      <path class="cls-1" d="M182.05,80.75v-5.01h1.42c.35,0,.62.03.8.09.24.08.45.23.62.44s.31.48.41.8c.1.32.15.71.15,1.15,0,.57-.08,1.05-.25,1.44-.17.4-.38.68-.64.84-.26.17-.6.25-1.02.25h-1.48ZM182.6,80.16h.88c.35,0,.62-.06.8-.17.18-.12.32-.3.42-.56.13-.34.19-.75.19-1.22,0-.51-.07-.91-.21-1.2-.14-.29-.31-.48-.53-.58-.15-.07-.38-.1-.69-.1h-.86v3.83Z"/>
      <path class="cls-1" d="M187.9,80.75h-.51v-3.92c-.12.14-.27.28-.47.42-.2.14-.38.25-.54.32v-.59c.28-.16.52-.35.74-.58.21-.23.36-.45.45-.67h.33v5.03Z"/>
      <path class="cls-1" d="M189.97,78.03c-.2-.09-.35-.22-.46-.39-.1-.17-.15-.38-.15-.63,0-.38.11-.69.34-.93.22-.24.5-.36.84-.36s.62.12.85.37.34.56.34.94c0,.24-.05.45-.15.61-.1.17-.25.3-.45.39.25.1.44.26.57.48s.2.49.2.81c0,.45-.13.81-.39,1.09s-.58.42-.96.42-.71-.14-.97-.42c-.26-.28-.39-.65-.39-1.11,0-.34.07-.61.21-.83s.33-.37.57-.44ZM189.7,79.3c0,.31.08.56.25.74.17.19.36.28.59.28s.43-.09.59-.27.24-.43.24-.73-.08-.56-.25-.74c-.17-.19-.36-.28-.6-.28s-.42.09-.58.28c-.16.19-.24.43-.24.72ZM189.87,76.99c0,.25.06.44.19.59s.29.22.48.22.34-.07.47-.21.19-.33.19-.56-.07-.43-.2-.57c-.13-.15-.29-.22-.47-.22s-.34.07-.47.22c-.13.15-.2.33-.2.55Z"/>
      <path class="cls-1" d="M182.05,90.75v-5.01h1.42c.35,0,.62.03.8.09.24.08.45.23.62.44s.31.48.41.8c.1.32.15.71.15,1.15,0,.57-.08,1.05-.25,1.44-.17.4-.38.68-.64.84-.26.17-.6.25-1.02.25h-1.48ZM182.6,90.16h.88c.35,0,.62-.06.8-.17.18-.12.32-.3.42-.56.13-.34.19-.75.19-1.22,0-.51-.07-.91-.21-1.2-.14-.29-.31-.48-.53-.58-.15-.07-.38-.1-.69-.1h-.86v3.83Z"/>
      <path class="cls-1" d="M186,89.44l.53-.05c.04.32.13.56.28.71.15.16.31.23.5.23.24,0,.45-.11.62-.33s.26-.52.26-.9c0-.36-.08-.64-.25-.83-.17-.2-.38-.3-.63-.3-.15,0-.3.04-.43.13-.13.09-.24.21-.32.36l-.48-.08.4-2.57h2.04v.59h-1.64l-.22,1.35c.24-.21.5-.32.78-.32.34,0,.64.15.9.44.25.29.38.69.38,1.19s-.13.91-.38,1.26c-.25.35-.6.53-1.02.53-.36,0-.66-.12-.9-.37-.24-.25-.38-.59-.42-1.03Z"/>
      <path class="cls-1" d="M183.12,100.75v-4.42h-1.35v-.59h3.26v.59h-1.36v4.42h-.54Z"/>
      <path class="cls-1" d="M185.16,100.75l1.59-2.61-1.4-2.4h.65l.75,1.28c.15.26.26.47.33.62.09-.18.2-.37.33-.57l.83-1.33h.59l-1.44,2.36,1.55,2.65h-.67l-1.04-1.79c-.06-.1-.12-.21-.18-.34-.09.18-.16.31-.2.38l-1.03,1.75h-.65Z"/>
      <path class="cls-1" d="M191.85,100.16v.59h-2.72c0-.24.07-.51.22-.8.15-.3.43-.65.83-1.05.47-.47.78-.83.93-1.09.15-.26.22-.5.22-.72,0-.26-.07-.46-.22-.62-.15-.16-.33-.24-.55-.24-.23,0-.43.09-.58.26s-.23.42-.23.75l-.52-.06c.04-.48.17-.84.41-1.08.24-.24.55-.36.93-.36.42,0,.74.14.95.42.21.28.32.6.32.96,0,.32-.08.62-.25.92s-.49.68-.96,1.17c-.3.31-.5.52-.58.63-.09.11-.16.22-.21.34h2.02Z"/>
      <path class="cls-1" d="M182.06,110.75v-5.01h1.82c.38,0,.66.05.84.14.18.09.33.25.45.47.12.22.17.47.17.76,0,.38-.1.68-.3.92-.2.23-.48.38-.86.45.15.09.27.18.35.28.16.19.3.4.43.64l.72,1.36h-.68l-.55-1.04c-.21-.41-.37-.68-.48-.82-.11-.14-.21-.24-.31-.29-.1-.05-.24-.07-.42-.07h-.63v2.23h-.54ZM182.61,107.95h1.17c.26,0,.45-.03.58-.09s.24-.16.31-.29.12-.29.12-.46c0-.25-.07-.45-.22-.6-.15-.14-.37-.22-.66-.22h-1.3v1.66Z"/>
      <path class="cls-1" d="M185.79,110.75l1.59-2.61-1.4-2.4h.65l.75,1.28c.15.26.26.47.33.62.09-.18.2-.37.33-.57l.83-1.33h.59l-1.44,2.36,1.55,2.65h-.67l-1.04-1.79c-.06-.1-.12-.21-.18-.34-.09.18-.16.31-.2.38l-1.03,1.75h-.65Z"/>
      <path class="cls-1" d="M192.48,110.16v.59h-2.72c0-.24.07-.51.22-.8.15-.3.43-.65.83-1.05.47-.47.78-.83.93-1.09.15-.26.22-.5.22-.72,0-.26-.07-.46-.22-.62-.15-.16-.33-.24-.55-.24-.23,0-.43.09-.58.26s-.23.42-.23.75l-.52-.06c.04-.48.17-.84.41-1.08.24-.24.55-.36.93-.36.42,0,.74.14.95.42.21.28.32.6.32.96,0,.32-.08.62-.25.92s-.49.68-.96,1.17c-.3.31-.5.52-.58.63-.09.11-.16.22-.21.34h2.02Z"/>
      <path class="cls-1" d="M182.05,120.75v-5.01h1.42c.35,0,.62.03.8.09.24.08.45.23.62.44s.31.48.41.8c.1.32.15.71.15,1.15,0,.57-.08,1.05-.25,1.44-.17.4-.38.68-.64.84-.26.17-.6.25-1.02.25h-1.48ZM182.6,120.16h.88c.35,0,.62-.06.8-.17.18-.12.32-.3.42-.56.13-.34.19-.75.19-1.22,0-.51-.07-.91-.21-1.2-.14-.29-.31-.48-.53-.58-.15-.07-.38-.1-.69-.1h-.86v3.83Z"/>
      <path class="cls-1" d="M187.61,120.75v-1.2h-1.78v-.56l1.87-3.25h.41v3.25h.56v.56h-.56v1.2h-.51ZM187.61,118.98v-2.26l-1.28,2.26h1.28Z"/>
      <path class="cls-1" d="M182.05,130.75v-5.01h1.42c.35,0,.62.03.8.09.24.08.45.23.62.44s.31.48.41.8c.1.32.15.71.15,1.15,0,.57-.08,1.05-.25,1.44-.17.4-.38.68-.64.84-.26.17-.6.25-1.02.25h-1.48ZM182.6,130.16h.88c.35,0,.62-.06.8-.17.18-.12.32-.3.42-.56.13-.34.19-.75.19-1.22,0-.51-.07-.91-.21-1.2-.14-.29-.31-.48-.53-.58-.15-.07-.38-.1-.69-.1h-.86v3.83Z"/>
      <path class="cls-1" d="M188.65,130.16v.59h-2.72c0-.24.07-.51.22-.8.15-.3.43-.65.83-1.05.47-.47.78-.83.93-1.09.15-.26.22-.5.22-.72,0-.26-.07-.46-.22-.62-.15-.16-.33-.24-.55-.24-.23,0-.43.09-.58.26s-.23.42-.23.75l-.52-.06c.04-.48.17-.84.41-1.08.24-.24.55-.36.93-.36.42,0,.74.14.95.42.21.28.32.6.32.96,0,.32-.08.62-.25.92s-.49.68-.96,1.17c-.3.31-.5.52-.58.63-.09.11-.16.22-.21.34h2.02Z"/>
      <path class="cls-1" d="M182.05,140.75v-5.01h1.42c.35,0,.62.03.8.09.24.08.45.23.62.44s.31.48.41.8c.1.32.15.71.15,1.15,0,.57-.08,1.05-.25,1.44-.17.4-.38.68-.64.84-.26.17-.6.25-1.02.25h-1.48ZM182.6,140.16h.88c.35,0,.62-.06.8-.17.18-.12.32-.3.42-.56.13-.34.19-.75.19-1.22,0-.51-.07-.91-.21-1.2-.14-.29-.31-.48-.53-.58-.15-.07-.38-.1-.69-.1h-.86v3.83Z"/>
      <path class="cls-1" d="M187.9,140.75h-.51v-3.92c-.12.14-.27.28-.47.42-.2.14-.38.25-.54.32v-.59c.28-.16.52-.35.74-.58.21-.23.36-.45.45-.67h.33v5.03Z"/>
      <path class="cls-1" d="M189.19,139.44l.53-.05c.04.32.13.56.28.71.15.16.31.23.5.23.24,0,.45-.11.62-.33s.26-.52.26-.9c0-.36-.08-.64-.25-.83-.17-.2-.38-.3-.63-.3-.15,0-.3.04-.43.13-.13.09-.24.21-.32.36l-.48-.08.4-2.57h2.04v.59h-1.64l-.22,1.35c.24-.21.5-.32.78-.32.34,0,.64.15.9.44.25.29.38.69.38,1.19s-.13.91-.38,1.26c-.25.35-.6.53-1.02.53-.36,0-.66-.12-.9-.37-.24-.25-.38-.59-.42-1.03Z"/>
      <path class="cls-1" d="M184,148.78v-.59h1.74s0,1.86,0,1.86c-.27.26-.54.46-.83.59-.28.13-.58.2-.88.2-.4,0-.76-.1-1.07-.3s-.56-.49-.75-.88c-.18-.39-.27-.85-.27-1.39s.09-1.02.28-1.43c.18-.41.43-.71.72-.9s.65-.29,1.06-.29c.3,0,.56.06.79.17s.41.27.56.48.26.49.33.84l-.49.16c-.07-.28-.15-.49-.25-.63-.1-.14-.23-.25-.4-.33s-.35-.12-.55-.12c-.3,0-.56.07-.77.22-.22.15-.39.37-.52.68-.13.31-.2.68-.2,1.12,0,.67.14,1.17.42,1.51.28.33.65.5,1.09.5.21,0,.43-.05.66-.15.22-.1.4-.22.53-.37v-.93h-1.21Z"/>
      <path class="cls-1" d="M186.52,150.75v-5.01h.56l2.16,3.94v-3.94h.52v5.01h-.56l-2.16-3.94v3.94h-.52Z"/>
      <path class="cls-1" d="M190.66,150.75v-5.01h1.42c.35,0,.62.03.8.09.24.08.45.23.62.44s.31.48.41.8c.1.32.15.71.15,1.15,0,.57-.08,1.05-.25,1.44-.17.4-.38.68-.64.84-.26.17-.6.25-1.02.25h-1.48ZM191.21,150.16h.88c.35,0,.62-.06.8-.17.18-.12.32-.3.42-.56.13-.34.19-.75.19-1.22,0-.51-.07-.91-.21-1.2-.14-.29-.31-.48-.53-.58-.15-.07-.38-.1-.69-.1h-.86v3.83Z"/>
      <path class="cls-1" d="M181.85,159.42l.5-.08c.1.66.37.99.8.99.23,0,.43-.1.6-.29.17-.2.25-.45.25-.76,0-.29-.08-.53-.23-.71s-.35-.27-.57-.27c-.1,0-.21.02-.36.07l.06-.54h.08c.25,0,.45-.07.61-.22.16-.15.23-.36.23-.61,0-.23-.06-.42-.2-.56s-.29-.21-.48-.21-.36.07-.49.22c-.13.15-.22.38-.26.68l-.5-.11c.06-.43.21-.75.43-.97s.49-.33.81-.33c.33,0,.62.12.85.37.23.25.35.56.35.93,0,.23-.05.43-.15.6-.1.18-.24.31-.41.41.16.05.3.12.4.23.11.1.19.25.26.42s.1.37.1.59c0,.46-.14.84-.41,1.13s-.6.44-.97.44c-.35,0-.65-.13-.89-.38s-.38-.6-.42-1.03Z"/>
      <path class="cls-1" d="M185.35,160.75v-.7h.57v.7h-.57Z"/>
      <path class="cls-1" d="M186.64,159.42l.5-.08c.1.66.37.99.8.99.23,0,.43-.1.6-.29.17-.2.25-.45.25-.76,0-.29-.08-.53-.23-.71s-.35-.27-.57-.27c-.1,0-.21.02-.36.07l.06-.54h.08c.25,0,.45-.07.61-.22.16-.15.23-.36.23-.61,0-.23-.06-.42-.2-.56s-.29-.21-.48-.21-.36.07-.49.22c-.13.15-.22.38-.26.68l-.5-.11c.06-.43.21-.75.43-.97s.49-.33.81-.33c.33,0,.62.12.85.37.23.25.35.56.35.93,0,.23-.05.43-.15.6-.1.18-.24.31-.41.41.16.05.3.12.4.23.11.1.19.25.26.42s.1.37.1.59c0,.46-.14.84-.41,1.13s-.6.44-.97.44c-.35,0-.65-.13-.89-.38s-.38-.6-.42-1.03Z"/>
      <path class="cls-1" d="M191.23,160.75l-1.6-5.01h.59l1.07,3.64c.08.28.15.56.22.82.06-.28.14-.55.22-.82l1.11-3.64h.55l-1.61,5.01h-.56Z"/>
    </g>
  </g>
</svg>